<svg width="99" height="29" viewBox="0 0 99 29" fill="none" xmlns="http://www.w3.org/2000/svg">
<g clip-path="url(#clip0_1095_1504)">
<path fill-rule="evenodd" clip-rule="evenodd" d="M95.332 29H3.66802C1.64642 29 0 27.3656 0 25.375V3.625C0 1.62718 1.64642 0 3.66802 0H95.332C97.3518 0 99 1.62718 99 3.625V25.375C99 27.3656 97.3518 29 95.332 29Z" fill="#282D31"/>
<path fill-rule="evenodd" clip-rule="evenodd" d="M95.332 0.580362C97.0276 0.580362 98.4154 1.949 98.4154 3.625V25.375C98.4154 27.051 97.0367 28.4196 95.332 28.4196H3.66802C1.97242 28.4196 0.584624 27.051 0.584624 25.375V3.625C0.584624 1.949 1.96332 0.580362 3.66802 0.580362H95.332ZM95.332 0H3.66802C1.64642 0 0 1.63441 0 3.625V25.375C0 27.3728 1.64642 29 3.66802 29H95.332C97.3518 29 99 27.3728 99 25.375V3.625C99 1.63441 97.3518 0 95.332 0Z" fill="#A6A6A6"/>
<path d="M52.1534 9.59316C51.4923 9.59316 50.9349 9.36355 50.4942 8.91156C50.0571 8.47222 49.8131 7.86654 49.824 7.24822C49.824 6.5883 50.0498 6.02964 50.4942 5.58668C50.9331 5.13469 51.4904 4.90508 52.1515 4.90508C52.8054 4.90508 53.3627 5.13469 53.8107 5.58668C54.2551 6.0441 54.4809 6.60277 54.4809 7.24822C54.4736 7.90994 54.2478 8.4686 53.8107 8.90975C53.3718 9.36536 52.8145 9.59316 52.1534 9.59316ZM32.482 9.59316C31.8354 9.59316 31.2745 9.36717 30.8155 8.9206C30.3602 8.47583 30.1289 7.91355 30.1289 7.25002C30.1289 6.5865 30.3602 6.02421 30.8155 5.57945C31.2654 5.13288 31.8263 4.90688 32.482 4.90688C32.8025 4.90688 33.1139 4.97016 33.4126 5.09853C33.7059 5.22328 33.9444 5.39323 34.1211 5.60115L34.1648 5.65358L33.6713 6.1345L33.6203 6.07484C33.3416 5.74579 32.9682 5.58488 32.4747 5.58488C32.0339 5.58488 31.6497 5.74036 31.3328 6.04772C31.014 6.35688 30.8519 6.76187 30.8519 7.25183C30.8519 7.74179 31.014 8.14678 31.3328 8.45595C31.6497 8.7633 32.0339 8.91879 32.4747 8.91879C32.9446 8.91879 33.3398 8.7633 33.6476 8.45595C33.8297 8.27515 33.9426 8.02203 33.9827 7.70202H32.4V7.02583H34.662L34.6711 7.08731C34.6875 7.20121 34.7039 7.31873 34.7039 7.42721C34.7039 8.05096 34.5145 8.55538 34.1393 8.92783C33.7131 9.36897 33.1558 9.59316 32.482 9.59316ZM58.637 9.49734H57.9395L55.8032 6.10377L55.8214 6.71486V9.49553H55.1238V5.00271H55.9197L55.9416 5.03706L57.9504 8.23356L57.9322 7.62428V5.00271H58.637V9.49734ZM46.9118 9.49734H46.2051V5.67889H44.9794V5.00271H48.1357V5.67889H46.91V9.49734H46.9118ZM44.4039 9.49734H43.6991V5.00271H44.4039V9.49734ZM40.4427 9.49734H39.7379V5.67889H38.5122V5.00271H41.6684V5.67889H40.4427V9.49734ZM38.0659 9.49011H35.3632V5.00271H38.0659V5.67889H36.0698V6.91193H37.8711V7.58088H36.0698V8.81393H38.0659V9.49011ZM51.0114 8.44691C51.3265 8.75969 51.709 8.91698 52.1534 8.91698C52.6105 8.91698 52.9839 8.7633 53.2953 8.44691C53.6049 8.13955 53.7615 7.73637 53.7615 7.25002C53.7615 6.76368 53.6049 6.35869 53.2971 6.05314C52.982 5.74036 52.5978 5.58307 52.1552 5.58307C51.6981 5.58307 51.3247 5.73675 51.0151 6.05314C50.7055 6.3605 50.5488 6.76368 50.5488 7.25002C50.5488 7.73637 50.7036 8.14136 51.0114 8.44691Z" fill="white"/>
<path fill-rule="evenodd" clip-rule="evenodd" d="M49.7582 15.7729C48.0371 15.7729 46.642 17.0692 46.642 18.8573C46.642 20.6291 48.0462 21.9417 49.7582 21.9417C51.4793 21.9417 52.8744 20.6363 52.8744 18.8573C52.8744 17.0692 51.4793 15.7729 49.7582 15.7729ZM49.7582 20.7195C48.8166 20.7195 48.0061 19.9457 48.0061 18.85C48.0061 17.7381 48.8184 16.9806 49.7582 16.9806C50.6998 16.9806 51.5102 17.7381 51.5102 18.85C51.5121 19.9529 50.6998 20.7195 49.7582 20.7195ZM42.9594 15.7729C41.2383 15.7729 39.8432 17.0692 39.8432 18.8573C39.8432 20.6291 41.2474 21.9417 42.9594 21.9417C44.6805 21.9417 46.0756 20.6363 46.0756 18.8573C46.0756 17.0692 44.6787 15.7729 42.9594 15.7729ZM42.9594 20.7195C42.0178 20.7195 41.2074 19.9457 41.2074 18.85C41.2074 17.7381 42.0197 16.9806 42.9594 16.9806C43.901 16.9806 44.7115 17.7381 44.7115 18.85C44.7115 19.9529 43.901 20.7195 42.9594 20.7195ZM34.8694 16.7148V18.0202H38.0256C37.9291 18.7524 37.6851 19.293 37.3117 19.6636C36.8491 20.1229 36.1352 20.6219 34.8767 20.6219C32.937 20.6219 31.4199 19.067 31.4199 17.1415C31.4199 15.216 32.937 13.6611 34.8767 13.6611C35.9239 13.6611 36.687 14.0715 37.2534 14.5959L38.1859 13.6702C37.3991 12.9217 36.3519 12.3485 34.884 12.3485C32.2231 12.3485 29.9902 14.5 29.9902 17.1343C29.9902 19.7757 32.2213 21.92 34.884 21.92C36.3209 21.92 37.3991 21.4535 38.2515 20.5748C39.1202 19.7124 39.3952 18.4957 39.3952 17.5139C39.3952 17.2084 39.3715 16.9336 39.3224 16.7003H34.8676C34.8694 16.6985 34.8694 16.7148 34.8694 16.7148ZM67.9598 17.7309C67.6994 17.0384 66.9126 15.7656 65.299 15.7656C63.6999 15.7656 62.3704 17.0149 62.3704 18.85C62.3704 20.5821 63.6853 21.9344 65.4538 21.9344C66.8744 21.9344 67.7012 21.072 68.0418 20.5658L66.9873 19.8643C66.6376 20.3796 66.1513 20.7177 65.4611 20.7177C64.7635 20.7177 64.2754 20.4031 63.9513 19.783L68.1055 18.0744C68.1055 18.0762 67.9598 17.7309 67.9598 17.7309ZM63.7236 18.7614C63.6908 17.57 64.6561 16.9643 65.3463 16.9643C65.8909 16.9643 66.3444 17.2301 66.4992 17.617L63.7236 18.7614ZM60.3488 21.75H61.7129V12.6884H60.3488V21.75ZM58.1087 16.4581H58.0595C57.7517 16.0947 57.1671 15.7656 56.4203 15.7656C54.8705 15.7656 53.4426 17.1198 53.4426 18.8591C53.4426 20.5911 54.8632 21.929 56.4203 21.929C57.158 21.929 57.7517 21.5982 58.0595 21.2275H58.1087V21.6705C58.1087 22.8475 57.4749 23.4821 56.4531 23.4821C55.6172 23.4821 55.0981 22.8854 54.8868 22.3864L53.7012 22.8782C54.0418 23.6918 54.9506 24.6988 56.4513 24.6988C58.0504 24.6988 59.4054 23.7641 59.4054 21.4843V15.95H58.1159V16.4581C58.1178 16.4581 58.1087 16.4581 58.1087 16.4581ZM56.5424 20.7195C55.6008 20.7195 54.814 19.9384 54.814 18.8591C54.814 17.7707 55.6008 16.9824 56.5424 16.9824C57.4749 16.9824 58.1979 17.7797 58.1979 18.8591C58.207 19.9384 57.4767 20.7195 56.5424 20.7195ZM74.347 12.6884H71.0851V21.75H72.4493V18.3185H74.3488C75.8587 18.3185 77.343 17.2319 77.343 15.5071C77.343 13.7823 75.8641 12.6884 74.347 12.6884ZM74.3871 17.0529H72.4474V13.9432H74.3871C75.4088 13.9432 75.9861 14.7803 75.9861 15.498C75.9861 16.2086 75.4015 17.0529 74.3871 17.0529ZM82.8104 15.7566C81.8196 15.7566 80.7979 16.1923 80.3754 17.1415L81.5847 17.6405C81.8451 17.1415 82.3223 16.9715 82.8268 16.9715C83.5334 16.9715 84.2474 17.391 84.2638 18.1395V18.2353C84.0197 18.0979 83.4843 17.8882 82.8432 17.8882C81.5373 17.8882 80.2133 18.5969 80.2133 19.9258C80.2133 21.1426 81.2842 21.9236 82.4771 21.9236C83.3932 21.9236 83.8977 21.5132 84.2128 21.0377H84.2619V21.7392H85.5769V18.2679C85.5769 16.6515 84.3676 15.7566 82.8104 15.7566ZM82.6392 20.7195C82.193 20.7195 81.5683 20.5025 81.5683 19.9457C81.5683 19.2442 82.3478 18.9784 83.0126 18.9784C83.6136 18.9784 83.8977 19.1068 84.2547 19.284C84.1563 20.0975 83.4642 20.7123 82.6392 20.7195ZM90.3741 15.95L88.8078 19.8806H88.7586L87.1359 15.95H85.6679L88.103 21.4445L86.7152 24.4982H88.1358L91.8821 15.95H90.3741ZM78.0952 21.75H79.4593V12.6884H78.0952V21.75Z" fill="white"/>
<path fill-rule="evenodd" clip-rule="evenodd" d="M7.6204 5.4619C7.40913 5.6879 7.28711 6.03322 7.28711 6.48522V22.5166C7.28711 22.9686 7.40913 23.3139 7.62768 23.5309L7.68414 23.5797L16.7322 14.5976V14.3969L7.67686 5.41309L7.6204 5.4619Z" fill="url(#paint0_linear_1095_1504)"/>
<path fill-rule="evenodd" clip-rule="evenodd" d="M19.7424 17.6007L16.7246 14.6049V14.3952L19.7424 11.3993L19.808 11.4391L23.3777 13.4532C24.3994 14.0245 24.3994 14.9683 23.3777 15.5468L19.808 17.5609L19.7424 17.6007Z" fill="url(#paint1_linear_1095_1504)"/>
<path fill-rule="evenodd" clip-rule="evenodd" d="M19.809 17.5609L16.7256 14.5L7.62109 23.5381C7.95438 23.8925 8.51351 23.9322 9.1382 23.5869L19.809 17.5609Z" fill="url(#paint2_linear_1095_1504)"/>
<path fill-rule="evenodd" clip-rule="evenodd" d="M19.809 11.4391L9.1382 5.42214C8.51351 5.06778 7.95256 5.11659 7.62109 5.47096L16.7256 14.5L19.809 11.4391Z" fill="url(#paint3_linear_1095_1504)"/>
<path opacity="0.2" fill-rule="evenodd" clip-rule="evenodd" d="M19.742 17.4958L9.14406 23.473C8.55215 23.8111 8.02399 23.7876 7.68341 23.4802L7.62695 23.5363L7.68341 23.5851C8.02399 23.8906 8.55215 23.916 9.14406 23.5779L19.8148 17.5609L19.742 17.4958Z" fill="#282D31"/>
<path opacity="0.12" fill-rule="evenodd" clip-rule="evenodd" d="M23.3768 15.442L19.7324 17.4958L19.798 17.5609L23.3677 15.5468C23.8794 15.2575 24.1308 14.8779 24.1308 14.5C24.0998 14.8471 23.8394 15.1762 23.3768 15.442Z" fill="#282D31"/>
<path opacity="0.25" fill-rule="evenodd" clip-rule="evenodd" d="M9.13751 5.52697L23.3779 13.558C23.8405 13.8166 24.101 14.1547 24.141 14.5C24.141 14.1221 23.8897 13.7424 23.3779 13.4532L9.13751 5.42211C8.11578 4.84175 7.28711 5.32629 7.28711 6.4852V6.59007C7.28711 5.42934 8.11578 4.95384 9.13751 5.52697Z" fill="white"/>
</g>
<defs>
<linearGradient id="paint0_linear_1095_1504" x1="15.9206" y1="6.31226" x2="1.44136" y2="10.1986" gradientUnits="userSpaceOnUse">
<stop stop-color="#00A0FF"/>
<stop offset="0.00657" stop-color="#00A1FF"/>
<stop offset="0.2601" stop-color="#00BEFF"/>
<stop offset="0.5122" stop-color="#00D2FF"/>
<stop offset="0.7604" stop-color="#00DFFF"/>
<stop offset="1" stop-color="#00E3FF"/>
</linearGradient>
<linearGradient id="paint1_linear_1095_1504" x1="24.7101" y1="14.5001" x2="7.03852" y2="14.5001" gradientUnits="userSpaceOnUse">
<stop stop-color="#FFE000"/>
<stop offset="0.4087" stop-color="#FFBD00"/>
<stop offset="0.7754" stop-color="#FFA500"/>
<stop offset="1" stop-color="#FF9C00"/>
</linearGradient>
<linearGradient id="paint2_linear_1095_1504" x1="18.1323" y1="16.1656" x2="6.62256" y2="35.6798" gradientUnits="userSpaceOnUse">
<stop stop-color="#FF3A44"/>
<stop offset="1" stop-color="#C31162"/>
</linearGradient>
<linearGradient id="paint3_linear_1095_1504" x1="5.32849" y1="0.129633" x2="10.4634" y2="8.84492" gradientUnits="userSpaceOnUse">
<stop stop-color="#32A071"/>
<stop offset="0.0685" stop-color="#2DA771"/>
<stop offset="0.4762" stop-color="#15CF74"/>
<stop offset="0.8009" stop-color="#06E775"/>
<stop offset="1" stop-color="#00F076"/>
</linearGradient>
<clipPath id="clip0_1095_1504">
<rect width="99" height="29" fill="white"/>
</clipPath>
</defs>
</svg>
