<svg width="99" height="29" viewBox="0 0 99 29" fill="none" xmlns="http://www.w3.org/2000/svg">
<g clip-path="url(#clip0_2958_3352)">
<mask id="mask0_2958_3352" style="mask-type:luminance" maskUnits="userSpaceOnUse" x="0" y="0" width="99" height="29">
<path d="M99 0H0V29H99V0Z" fill="white"/>
</mask>
<g mask="url(#mask0_2958_3352)">
<path fill-rule="evenodd" clip-rule="evenodd" d="M95.332 29H3.66802C1.64642 29 0 27.3656 0 25.375V3.625C0 1.62718 1.64642 0 3.66802 0H95.332C97.3518 0 99 1.62718 99 3.625V25.375C99 27.3656 97.3518 29 95.332 29Z" fill="#282D31"/>
<path fill-rule="evenodd" clip-rule="evenodd" d="M95.332 0.580362C97.0276 0.580362 98.4154 1.949 98.4154 3.625V25.375C98.4154 27.051 97.0367 28.4196 95.332 28.4196H3.66802C1.97242 28.4196 0.584624 27.051 0.584624 25.375V3.625C0.584624 1.949 1.96332 0.580362 3.66802 0.580362H95.332ZM95.332 0H3.66802C1.64642 0 0 1.63441 0 3.625V25.375C0 27.3728 1.64642 29 3.66802 29H95.332C97.3518 29 99 27.3728 99 25.375V3.625C99 1.63441 97.3518 0 95.332 0Z" fill="#A6A6A6"/>
<path d="M36.9235 19.7748H33.4249L32.5757 22.1294H31.0382L34.4592 13.3326H35.9111L39.4097 22.1294H37.8006L36.9235 19.7748ZM33.8705 18.5714H36.476L35.5432 16.0523C35.4159 15.7053 35.2886 15.3202 35.1653 14.899C35.0519 15.2721 34.9286 15.6511 34.7973 16.0402L33.8705 18.5714Z" fill="white"/>
<path d="M40.0283 17.1815C40.0283 16.6961 40.0124 16.1612 39.9806 15.5769H41.3729C41.4252 15.852 41.461 16.1299 41.4803 16.4093C41.7239 16.1149 42.0278 15.8771 42.3711 15.7123C42.7144 15.5475 43.089 15.4596 43.4692 15.4546C43.915 15.4475 44.3528 15.5746 44.7266 15.8197C45.1003 16.0648 45.3931 16.4167 45.5676 16.8305C45.8122 17.3993 45.9284 18.0159 45.9077 18.6356C45.9228 19.3112 45.7868 19.9817 45.5099 20.5971C45.2782 21.1079 44.8999 21.5369 44.4239 21.8286C43.9342 22.114 43.3764 22.2589 42.8109 22.2478C42.3659 22.2475 41.9241 22.1716 41.5041 22.0231V24.7368L40.0164 24.8652L40.0283 17.1815ZM43.9386 20.5249C44.2409 20.1238 44.3941 19.5221 44.3941 18.7198C44.3941 17.9884 44.2681 17.4536 44.0162 17.1153C43.9023 16.9581 43.7524 16.831 43.5792 16.7451C43.406 16.6592 43.2147 16.6169 43.0217 16.6219C42.7438 16.6181 42.4696 16.6872 42.2261 16.8224C41.9675 16.9702 41.7322 17.1561 41.528 17.374V20.8839C41.6928 20.9623 41.8665 21.0202 42.0451 21.0564C42.2373 21.0983 42.4333 21.1198 42.6299 21.1206C42.8796 21.1357 43.1291 21.0893 43.3571 20.9856C43.5851 20.8818 43.7847 20.7237 43.9386 20.5249V20.5249Z" fill="white"/>
<path d="M46.8126 17.1815C46.8126 16.6961 46.7967 16.1612 46.7649 15.5769H48.1572C48.2111 15.8518 48.2476 16.1298 48.2665 16.4093C48.846 15.7728 49.509 15.4546 50.2555 15.4546C50.7013 15.4475 51.1391 15.5746 51.5128 15.8197C51.8866 16.0648 52.1794 16.4167 52.3538 16.8305C52.5985 17.3993 52.7147 18.0159 52.6939 18.6356C52.7122 19.3105 52.5796 19.9809 52.3061 20.5971C52.0739 21.1082 51.6949 21.5372 51.2181 21.8286C50.7285 22.1142 50.1707 22.2592 49.6051 22.2478C49.1601 22.2475 48.7183 22.1716 48.2984 22.0231V24.7368L46.8106 24.8652L46.8126 17.1815ZM50.7289 20.5249C51.0312 20.1144 51.1823 19.5127 51.1823 18.7198C51.1823 17.9884 51.057 17.4536 50.8064 17.1153C50.6926 16.9581 50.5426 16.831 50.3694 16.7451C50.1962 16.6592 50.0049 16.6169 49.812 16.6219C49.5341 16.6185 49.26 16.6876 49.0164 16.8224C48.7577 16.9702 48.5224 17.1561 48.3183 17.374V20.8839C48.4833 20.9617 48.6569 21.0196 48.8354 21.0564C49.0275 21.0983 49.2235 21.1198 49.4201 21.1206C49.6698 21.1353 49.9192 21.0888 50.1472 20.9851C50.3751 20.8813 50.5747 20.7234 50.7289 20.5249V20.5249Z" fill="white"/>
<path d="M55.4287 21.7143C54.7931 21.3628 54.2768 20.8268 53.9469 20.1759C53.5863 19.4404 53.4088 18.6274 53.4298 17.8072C53.404 16.9297 53.6099 16.061 54.0265 15.2901C54.4026 14.6211 54.9675 14.0801 55.6494 13.7357C56.3661 13.3826 57.1551 13.2047 57.9526 13.2163C58.4363 13.2142 58.9184 13.2707 59.3887 13.3847C59.8285 13.4892 60.2554 13.6425 60.6616 13.842L60.2757 14.9953C59.5722 14.6374 58.7981 14.4428 58.0103 14.4257C57.4542 14.4163 56.9055 14.5547 56.4192 14.8268C55.9577 15.0939 55.5869 15.4951 55.3551 15.9781C55.0885 16.5508 54.959 17.1788 54.9772 17.8112C54.9673 18.3811 55.0658 18.9476 55.2676 19.48C55.4507 19.9512 55.7728 20.3544 56.1904 20.6352C56.6662 20.9354 57.2208 21.0836 57.7816 21.0604C58.0722 21.0597 58.3622 21.0349 58.6488 20.9862C58.9261 20.9418 59.1985 20.8706 59.4623 20.7736V18.9846H57.4455V17.8193H60.9082V21.5277C60.4058 21.7638 59.8797 21.9447 59.3389 22.0673C58.8027 22.1918 58.2543 22.2551 57.704 22.2558C56.9121 22.275 56.1285 22.0885 55.4287 21.7143V21.7143Z" fill="white"/>
<path d="M66.193 22.1294C66.1367 21.843 66.1021 21.5527 66.0895 21.261C65.8411 21.5525 65.5375 21.7911 65.1965 21.963C64.8115 22.1596 64.3849 22.2587 63.9534 22.2518C63.6003 22.2563 63.2508 22.1802 62.9311 22.0291C62.6269 21.8853 62.3726 21.6526 62.2011 21.3613C62.0111 21.0311 61.9167 20.6538 61.9286 20.2722C61.9175 19.9828 61.9733 19.6947 62.0918 19.4308C62.2102 19.1669 62.3879 18.9345 62.6108 18.7519C63.0643 18.3722 63.8208 18.183 64.8802 18.1843C65.2749 18.1841 65.669 18.2123 66.0597 18.2685V18.1402C66.0597 17.5625 65.9377 17.1547 65.6937 16.9167C65.4021 16.6636 65.0235 16.5361 64.6396 16.5617C64.2957 16.5659 63.9536 16.6131 63.6212 16.7021C63.2919 16.7822 62.9709 16.8937 62.6626 17.035L62.4279 15.944C62.7652 15.7988 63.1155 15.6866 63.4741 15.609C63.925 15.5062 64.3861 15.4551 64.8484 15.4566C65.3383 15.4431 65.8257 15.5311 66.2805 15.7153C66.6805 15.8936 67.0061 16.2072 67.2014 16.6018C67.4455 17.1302 67.5594 17.7103 67.5335 18.2926V20.9C67.5335 21.1674 67.5494 21.5779 67.5813 22.1314L66.193 22.1294ZM65.3019 20.926C65.5886 20.7917 65.8461 20.6015 66.0597 20.3665V19.1631C65.7296 19.1237 65.3976 19.1016 65.0652 19.0969C64.4513 19.0969 64.0263 19.1971 63.7903 19.3977C63.6752 19.4958 63.5837 19.619 63.5227 19.758C63.4617 19.897 63.4328 20.0481 63.4383 20.2C63.4275 20.3312 63.4448 20.4633 63.4891 20.5871C63.5334 20.711 63.6035 20.8239 63.6948 20.918C63.8887 21.0829 64.1377 21.1668 64.391 21.1527C64.7077 21.1478 65.0193 21.0703 65.3019 20.926V20.926Z" fill="white"/>
<path d="M68.6831 20.557V12.8151L70.1629 12.6948V20.2902C70.1418 20.5011 70.1916 20.713 70.3041 20.8919C70.3609 20.9536 70.431 21.0013 70.5089 21.0316C70.5868 21.0618 70.6705 21.0737 70.7536 21.0664C70.8885 21.0605 71.0221 21.0376 71.1514 20.9982L71.3264 22.0733C71.1599 22.1367 70.9872 22.1824 70.8113 22.2097C70.6214 22.2429 70.4292 22.2603 70.2365 22.2618C69.2009 22.2551 68.6831 21.6868 68.6831 20.557Z" fill="white"/>
<path d="M72.3845 20.557V12.8151L73.8663 12.6948V20.2902C73.8452 20.5011 73.895 20.713 74.0075 20.8919C74.0643 20.9536 74.1344 21.0013 74.2123 21.0316C74.2902 21.0618 74.3739 21.0737 74.457 21.0664C74.5919 21.0605 74.7255 21.0376 74.8548 20.9982L75.0278 22.0733C74.862 22.1367 74.69 22.1824 74.5147 22.2097C74.3242 22.243 74.1312 22.2604 73.9379 22.2618C72.9036 22.2551 72.3858 21.6868 72.3845 20.557Z" fill="white"/>
<path d="M81.1141 19.0447H76.8638C76.9314 20.4179 77.5798 21.1045 78.8089 21.1045C79.1244 21.1029 79.4387 21.0652 79.7457 20.9922C80.0594 20.9186 80.3661 20.818 80.6627 20.6914L80.9888 21.7183C80.2231 22.0822 79.3849 22.2647 78.5385 22.2518C77.9321 22.2694 77.3312 22.1314 76.7922 21.8506C76.3252 21.5962 75.9505 21.1986 75.7221 20.7154C75.4696 20.1556 75.3472 19.5451 75.3641 18.9304C75.3476 18.2862 75.4775 17.6468 75.744 17.0611C75.9712 16.5641 76.3385 16.1455 76.8001 15.8577C77.2732 15.5767 77.8144 15.4337 78.3634 15.4446C78.9083 15.4251 79.4456 15.5772 79.9009 15.8798C80.3114 16.1671 80.6295 16.5695 80.8158 17.0371C81.0207 17.5464 81.1221 18.092 81.1141 18.6416V19.0447ZM79.6642 18.092C79.667 17.6662 79.5268 17.2519 79.2664 16.9167C79.1497 16.7849 79.0056 16.6806 78.8444 16.6113C78.6831 16.5419 78.5088 16.5093 78.3336 16.5156C78.1573 16.5119 77.9823 16.5457 77.8198 16.6149C77.6574 16.684 77.5112 16.7868 77.3908 16.9167C77.1104 17.2462 76.9387 17.6556 76.8996 18.088L79.6642 18.092Z" fill="white"/>
<path d="M82.2398 17.2236C82.2398 16.8646 82.2219 16.315 82.1901 15.5789H83.5823C83.6062 15.7614 83.6281 15.9801 83.6519 16.2308C83.6758 16.4815 83.6877 16.6901 83.6957 16.8485C83.8455 16.5929 84.0158 16.3501 84.2049 16.1225C84.3691 15.928 84.5673 15.7655 84.7896 15.6431C85.0234 15.5159 85.2858 15.4516 85.5514 15.4566C85.7528 15.4516 85.9539 15.4766 86.1481 15.5308L85.9611 16.8305C85.7282 16.7625 85.4836 16.7452 85.2436 16.7798C85.0036 16.8144 84.7736 16.9 84.5689 17.031C84.2396 17.2778 83.9527 17.5772 83.7196 17.9175V22.1294H82.2398V17.2236Z" fill="white"/>
<path d="M86.9755 24.811C86.7941 24.7814 86.6152 24.7378 86.4404 24.6806L86.7109 23.5875C86.8361 23.6215 86.9629 23.649 87.0908 23.6698C87.234 23.6954 87.379 23.7088 87.5244 23.7099C88.1874 23.7099 88.6807 23.2827 89.0042 22.4283L89.1016 22.1856L86.705 15.5789H88.2961L89.5134 19.2714C89.6692 19.7463 89.7954 20.2306 89.8913 20.7215C90.0046 20.2481 90.1359 19.7748 90.2891 19.3014L91.5023 15.5789H93L90.6133 22.2157C90.4331 22.7503 90.1879 23.2602 89.8833 23.734C89.651 24.0918 89.3338 24.3855 88.9604 24.5884C88.5603 24.7854 88.1187 24.8818 87.6736 24.8692C87.4396 24.8701 87.2061 24.8506 86.9755 24.811V24.811Z" fill="white"/>
<path d="M31.0382 4.95694H33.6835L33.6099 5.60277H31.8099V6.8523H33.5065V7.454H31.8099V8.8379H33.7054L33.6398 9.49375H31.0382V4.95694Z" fill="white"/>
<path d="M35.5114 7.17922L34.1191 4.95694H35.0022L35.949 6.58955L36.9434 4.95694H37.8007L36.4084 7.15114L37.914 9.49375H37.019L35.947 7.70871L34.855 9.49375H33.9978L35.5114 7.17922Z" fill="white"/>
<path d="M38.4849 4.95694H39.6981C40.267 4.95694 40.7032 5.07394 41.0068 5.30793C41.1579 5.42777 41.278 5.58262 41.3569 5.75932C41.4359 5.93601 41.4714 6.12932 41.4603 6.3228C41.4687 6.59916 41.3998 6.87233 41.2614 7.11103C41.1264 7.33542 40.9294 7.51525 40.6946 7.62849C40.4337 7.75287 40.1478 7.81465 39.8592 7.809C39.6589 7.80614 39.4592 7.78533 39.2625 7.74682V9.49375H38.4849V4.95694ZM40.434 6.98266C40.5189 6.90049 40.5851 6.80074 40.628 6.69028C40.6709 6.57982 40.6896 6.46129 40.6827 6.34286C40.6928 6.22936 40.675 6.11509 40.631 6.01015C40.5869 5.90521 40.5179 5.81283 40.4301 5.74116C40.2062 5.60369 39.9457 5.53925 39.6842 5.55664H39.2625V7.16117C39.4103 7.18802 39.5599 7.20344 39.7101 7.2073C39.9708 7.22703 40.2294 7.14681 40.434 6.98266Z" fill="white"/>
<path d="M42.228 4.95694H43.0037V8.82386H44.8654L44.7997 9.49375H42.228V4.95694Z" fill="white"/>
<path d="M46.0469 9.27112C45.7209 9.08615 45.4575 8.80664 45.2911 8.46886C45.1101 8.09447 45.0208 7.68182 45.0305 7.26546C45.021 6.83037 45.1165 6.39947 45.309 6.00992C45.4853 5.65877 45.7626 5.3694 46.1045 5.17957C46.4873 4.97739 46.9158 4.87924 47.3476 4.89477C47.756 4.88371 48.16 4.98125 48.5191 5.17757C48.8431 5.36319 49.1044 5.64269 49.269 5.97983C49.4463 6.35032 49.5343 6.75788 49.5255 7.16919C49.5363 7.60913 49.44 8.04503 49.2451 8.43877C49.067 8.7887 48.7902 9.07763 48.4495 9.26912C48.0734 9.47087 47.6522 9.57171 47.2263 9.56195C46.8145 9.57245 46.4074 9.47206 46.0469 9.27112V9.27112ZM48.0597 8.71556C48.2789 8.56904 48.4494 8.35939 48.549 8.11386C48.6605 7.83279 48.7153 7.53207 48.7101 7.22936C48.715 6.9322 48.6665 6.63659 48.5669 6.3569C48.4776 6.11464 48.3182 5.90501 48.1094 5.7552C47.8672 5.60576 47.5888 5.52668 47.3049 5.52668C47.0209 5.52668 46.7425 5.60576 46.5003 5.7552C46.2805 5.90903 46.1092 6.1235 46.0071 6.37294C45.8939 6.64242 45.8377 6.93273 45.842 7.22535C45.8372 7.52681 45.8899 7.8264 45.9971 8.10784C46.0924 8.36532 46.2666 8.58545 46.4945 8.73622C46.7223 8.887 46.9919 8.96056 47.2641 8.94621C47.5464 8.95321 47.8241 8.87271 48.0597 8.71556V8.71556Z" fill="white"/>
<path d="M50.3906 4.95694H51.7988C52.2114 4.92749 52.622 5.03683 52.9663 5.26782C53.0985 5.37243 53.2036 5.50763 53.2729 5.66196C53.3421 5.81629 53.3734 5.98519 53.3641 6.15432C53.3688 6.37425 53.3196 6.59194 53.2209 6.78811C53.1346 6.96013 53.0141 7.11238 52.8669 7.23538C52.7353 7.34253 52.5876 7.42784 52.4293 7.48809L53.8216 9.49375H52.9166L51.7451 7.68866H51.1743V9.49375H50.3906V4.95694ZM51.6099 7.103C51.7826 7.10681 51.9537 7.06899 52.1091 6.99269C52.249 6.92494 52.3669 6.81853 52.4492 6.68583C52.5313 6.54418 52.5732 6.38254 52.5705 6.21851C52.5785 6.12383 52.5631 6.02864 52.5256 5.94147C52.4881 5.8543 52.4297 5.77789 52.3557 5.7191C52.1692 5.60138 51.9507 5.54593 51.7312 5.56065H51.1683V7.11103L51.6099 7.103Z" fill="white"/>
<path d="M54.4283 4.95694H57.0796L57.004 5.60277H55.214V6.8523H56.8946V7.454H55.1981V8.8379H57.0935L57.0359 9.49375H54.4283V4.95694Z" fill="white"/>
<path d="M59.9635 4.95694H60.7392V9.49375H59.9635V4.95694Z" fill="white"/>
<path d="M62.7938 5.61079H61.4015L61.4691 4.95694H64.9697L64.8981 5.61079H63.5714V9.49375H62.7938V5.61079Z" fill="white"/>
<path d="M68.341 9.27112C68.0156 9.08603 67.7529 8.80649 67.5872 8.46886C67.4046 8.09498 67.3145 7.68208 67.3246 7.26546C67.3151 6.83037 67.4107 6.39947 67.6031 6.00991C67.7799 5.65913 68.0571 5.36989 68.3986 5.17957C68.7785 4.97639 69.2039 4.87553 69.6338 4.88674C70.0469 4.87552 70.4555 4.97593 70.8172 5.17756C71.1417 5.36259 71.4031 5.64226 71.567 5.97983C71.7451 6.35015 71.8337 6.75771 71.8256 7.16919C71.8367 7.60939 71.7396 8.04552 71.5432 8.43877C71.3657 8.78912 71.0887 9.0782 70.7476 9.26912C70.3717 9.47138 69.9503 9.57225 69.5244 9.56194C69.1113 9.57316 68.7027 9.47275 68.341 9.27112V9.27112ZM70.3558 8.71555C70.574 8.56837 70.7437 8.35886 70.8431 8.11385C70.9547 7.83279 71.0094 7.53207 71.0042 7.22936C71.0092 6.93219 70.9606 6.63659 70.861 6.35689C70.7725 6.11478 70.6138 5.90512 70.4055 5.75519C70.163 5.60558 69.8843 5.52641 69.6 5.52641C69.3157 5.52641 69.0369 5.60558 68.7944 5.75519C68.5746 5.90903 68.4033 6.1235 68.3012 6.37294C68.189 6.64271 68.1328 6.93282 68.1361 7.22535C68.1313 7.52681 68.184 7.8264 68.2912 8.10784C68.3862 8.35524 68.5516 8.56879 68.7666 8.72157C69.0021 8.87829 69.2802 8.95684 69.5622 8.9462C69.8438 8.95203 70.1205 8.87161 70.3558 8.71555V8.71555Z" fill="white"/>
<path d="M72.6869 4.95694H73.5779L75.8036 8.47287C75.7837 8.13793 75.7757 7.83106 75.7757 7.54826V4.95694H76.4957V9.49375H75.6325L73.3731 5.92167C73.395 6.3228 73.4069 6.68583 73.4069 7.00071V9.49375H72.6869V4.95694Z" fill="white"/>
<path fill-rule="evenodd" clip-rule="evenodd" d="M20.099 4.98101H11.8428C7.95046 4.98101 6.52637 6.41707 6.52637 10.3421V18.6737C6.52637 22.5988 7.95046 24.0348 11.8428 24.0348H20.099C23.9913 24.0348 25.4174 22.5988 25.4174 18.6737V10.3421C25.4214 6.41707 23.9973 4.98101 20.099 4.98101Z" fill="#C8102E"/>
<path d="M10.2676 14.5079H10.7688V17.001H10.2676V15.9881H9.13586V17.001H8.63464V14.5079H9.13586V15.5107H10.2676V14.5079ZM13.0919 15.9339C13.0919 16.3351 12.893 16.5557 12.531 16.5557C12.169 16.5557 11.9661 16.3351 11.9661 15.9119V14.5079H11.4649V15.9319C11.4649 16.6319 11.8508 17.033 12.523 17.033C13.1953 17.033 13.5931 16.6319 13.5931 15.9099V14.5079H13.0919V15.9339ZM18.8837 16.2207L18.3228 14.5079H17.9111L17.3542 16.2228L16.8072 14.5079H16.2742L17.1354 17.001H17.5511L18.11 15.3643L18.6709 17.001H19.0905L19.9518 14.5079H19.4307L18.8837 16.2207ZM20.8488 15.9259H21.7617V15.4746H20.8488V14.9652H22.1734V14.5079H20.3555V16.9949H22.2212V16.5457H20.8488V15.9259ZM22.8178 16.9949H23.3131V14.5079H22.8178V16.9949ZM14.5836 16.4795L14.3588 16.9969H13.8477L14.9277 14.5079H15.3692L16.4532 16.9969H15.9361L15.7233 16.4815L14.5836 16.4795ZM14.7706 16.0302H15.5244L15.1465 15.1397L14.7706 16.0302Z" fill="white"/>
<path d="M15.974 11.337C15.1402 11.3364 14.3407 11.0022 13.7511 10.4076C13.1615 9.81306 12.83 9.00683 12.8295 8.166H13.273C13.273 8.88837 13.5576 9.58115 14.0641 10.0919C14.5706 10.6027 15.2577 10.8897 15.974 10.8897C16.6903 10.8897 17.3774 10.6027 17.8839 10.0919C18.3904 9.58115 18.675 8.88837 18.675 8.166H19.1185C19.118 9.00683 18.7865 9.81306 18.1969 10.4076C17.6073 11.0022 16.8078 11.3364 15.974 11.337V11.337Z" fill="white"/>
</g>
</g>
<defs>
<clipPath id="clip0_2958_3352">
<rect width="99" height="29" fill="white"/>
</clipPath>
</defs>
</svg>
