<svg width="98" height="29" viewBox="0 0 98 29" fill="none" xmlns="http://www.w3.org/2000/svg">
<path d="M94.312 28.6339H3.68806C1.85151 28.6339 0.363281 27.1378 0.363281 25.2914V3.70857C0.363281 1.86225 1.85151 0.366089 3.68806 0.366089H94.312C96.1485 0.366089 97.6368 1.86225 97.6368 3.70857V25.2914C97.6368 27.1378 96.1485 28.6339 94.312 28.6339Z" fill="#282D31"/>
<path d="M3.68716 0.732162C2.05468 0.732162 0.726525 2.06739 0.726525 3.70856V25.2914C0.726525 26.9326 2.05468 28.2678 3.68716 28.2678H94.3128C95.9453 28.2678 97.2735 26.9326 97.2735 25.2914V3.70856C97.2735 2.06739 95.9453 0.732162 94.3128 0.732162H3.68716ZM94.3128 29H3.68716C1.65359 29 0 27.3358 0 25.2914V3.70856C0 1.66417 1.65359 0 3.68716 0H94.3128C96.3464 0 98 1.66417 98 3.70856V25.2914C98 27.3358 96.3464 29 94.3128 29Z" fill="#A7A9AB"/>
<path d="M33.9823 7.59046L33.6093 6.41617C33.5179 6.12614 33.4405 5.8025 33.3701 5.52661H33.356C33.2874 5.8025 33.2153 6.13321 33.1326 6.41617L32.7667 7.59046H33.9823ZM32.626 8.24658L32.2179 9.59772H31.3242L32.8441 4.83336H33.9471L35.4863 9.59772H34.5593L34.13 8.24658" fill="white"/>
<path d="M36.7796 6.15627L37.3355 7.90001C37.434 8.2042 37.5026 8.48009 37.5659 8.76305H37.5871C37.6504 8.48009 37.7278 8.21127 37.8193 7.90001L38.3681 6.15627H39.2741L37.967 9.59778H37.1174L35.8438 6.15627" fill="white"/>
<path d="M41.883 7.91419C41.2708 7.90711 40.6868 8.03445 40.6868 8.55792C40.6868 8.89748 40.9049 9.05311 41.1793 9.05311C41.5294 9.05311 41.7774 8.82674 41.8601 8.57915C41.883 8.51548 41.883 8.45181 41.883 8.38815V7.91419ZM42.7256 8.77015C42.7256 9.0814 42.7397 9.38559 42.7819 9.59604H42.0009L41.9393 9.21581H41.9164C41.7141 9.48285 41.3553 9.67385 40.9049 9.67385C40.2153 9.67385 39.8301 9.17337 39.8301 8.64989C39.8301 7.78686 40.5953 7.34296 41.8601 7.35003V7.29344C41.8601 7.06707 41.7704 6.69215 41.1653 6.69215C40.8275 6.69215 40.4757 6.79826 40.2435 6.94681L40.0746 6.38089C40.3279 6.22526 40.7712 6.07848 41.313 6.07848C42.409 6.07848 42.7256 6.77704 42.7256 7.53396" fill="white"/>
<path d="M43.9496 6.1562H44.8134V9.59772H43.9496V6.1562ZM44.3771 5.66102C44.0904 5.66102 43.9004 5.44879 43.9004 5.19413C43.9004 4.92532 44.0957 4.72017 44.3859 4.72017C44.6797 4.72017 44.8626 4.92532 44.8697 5.19413C44.8697 5.44879 44.6797 5.66102 44.3859 5.66102" fill="white"/>
<path d="M46.0566 9.59776H46.9221V4.57166H46.0566V9.59776Z" fill="white"/>
<path d="M49.9865 7.91419C49.3743 7.90711 48.7903 8.03445 48.7903 8.55792C48.7903 8.89748 49.0084 9.05311 49.2829 9.05311C49.6347 9.05311 49.881 8.82674 49.9654 8.57915C49.9865 8.51548 49.9865 8.45181 49.9865 8.38815V7.91419ZM50.8291 8.77015C50.8291 9.0814 50.8432 9.38559 50.8854 9.59604H50.1061L50.0428 9.21581H50.0217C49.8176 9.48285 49.4588 9.67385 49.0084 9.67385C48.3206 9.67385 47.9336 9.17337 47.9336 8.64989C47.9336 7.78686 48.7006 7.34296 49.9654 7.35003V7.29344C49.9654 7.06707 49.8739 6.69215 49.2688 6.69215C48.931 6.69215 48.5792 6.79826 48.3488 6.94681L48.1799 6.38089C48.4332 6.22526 48.8747 6.07848 49.4165 6.07848C50.5125 6.07848 50.8291 6.77704 50.8291 7.53396" fill="white"/>
<path d="M52.9171 8.17588C52.9171 8.24662 52.9241 8.31736 52.9382 8.38102C53.0297 8.73472 53.3322 8.98939 53.7034 8.98939C54.2452 8.98939 54.576 8.55787 54.576 7.85931C54.576 7.25095 54.2875 6.75576 53.7105 6.75576C53.3586 6.75576 53.0367 7.01043 52.9452 7.39243C52.9312 7.45609 52.9171 7.53391 52.9171 7.6188V8.17588ZM52.0516 4.57166H52.9171V6.62843H52.9312C53.1423 6.29595 53.5134 6.07842 54.0271 6.07842C54.8645 6.07842 55.4608 6.77699 55.4538 7.82394C55.4538 9.06013 54.6745 9.67557 53.9004 9.67557C53.4571 9.67557 53.0648 9.50579 52.8186 9.08135H52.8045L52.7623 9.59776H52.0234C52.0375 9.36431 52.0516 8.98232 52.0516 8.63569" fill="white"/>
<path d="M56.4727 9.59776H57.3364V4.57166H56.4727V9.59776Z" fill="white"/>
<path d="M60.7035 7.51274C60.7106 7.1944 60.5698 6.67093 59.9946 6.67093C59.4598 6.67093 59.2346 7.15903 59.1995 7.51274H60.7035ZM59.1995 8.11933C59.2206 8.74185 59.7061 9.01066 60.2549 9.01066C60.6543 9.01066 60.9357 8.947 61.2031 8.85503L61.3298 9.44748C61.0342 9.57659 60.6261 9.66678 60.1353 9.66678C59.0235 9.66678 58.3691 8.98237 58.3691 7.9301C58.3691 6.97511 58.9461 6.07848 60.0438 6.07848C61.1539 6.07848 61.5198 6.99633 61.5198 7.75325C61.5198 7.91596 61.5057 8.04329 61.4916 8.11933" fill="white"/>
<path d="M65.8136 9.04603C66.3044 9.04603 66.6492 8.565 66.6492 7.86644C66.6492 7.32881 66.41 6.7063 65.8207 6.7063C65.2085 6.7063 64.9622 7.30759 64.9622 7.88059C64.9622 8.54378 65.2929 9.04603 65.8048 9.04603H65.8136ZM65.7855 9.67562C64.8215 9.67562 64.0703 9.01066 64.0703 7.90181C64.0703 6.76996 64.8074 6.07848 65.8418 6.07848C66.8603 6.07848 67.5429 6.79826 67.5429 7.84522C67.5429 9.1097 66.6562 9.67562 65.7925 9.67562" fill="white"/>
<path d="M68.5596 7.18026C68.5596 6.78411 68.5473 6.45163 68.5332 6.15452H69.2844L69.3266 6.67093H69.3477C69.5025 6.40211 69.8754 6.07848 70.4454 6.07848C71.0417 6.07848 71.661 6.46578 71.661 7.55518V9.59604H70.7955V7.65422C70.7955 7.15903 70.6125 6.78411 70.1428 6.78411C69.798 6.78411 69.5588 7.0317 69.4673 7.29344C69.4392 7.36418 69.4251 7.47029 69.4251 7.56933V9.59604H68.5596" fill="white"/>
<path d="M75.6455 5.27194V6.15443H76.4671V6.80524H75.6455V8.31731C75.6455 8.74176 75.7581 8.95398 76.0871 8.95398C76.2419 8.95398 76.3263 8.9469 76.4248 8.91861L76.4389 9.57472C76.3123 9.62601 76.0801 9.66669 75.8127 9.66669C75.4907 9.66669 75.2304 9.56058 75.0685 9.38549C74.8786 9.18742 74.7941 8.86909 74.7941 8.41635V6.80524H74.3086V6.15443H74.7941V5.51246" fill="white"/>
<path d="M77.4277 4.57166H78.2932V6.62136H78.3073C78.4129 6.45865 78.5606 6.32425 78.7365 6.23228C78.9125 6.13502 79.1148 6.07842 79.3329 6.07842C79.9169 6.07842 80.5273 6.46573 80.5273 7.56928V9.59776H79.6636V7.66124C79.6636 7.16606 79.4807 6.78406 79.0022 6.78406C78.6662 6.78406 78.4269 7.01043 78.3284 7.27217C78.3003 7.34998 78.2932 7.44194 78.2932 7.53391V9.59776H77.4277" fill="white"/>
<path d="M83.8734 7.51274C83.8805 7.1944 83.7397 6.67093 83.1628 6.67093C82.628 6.67093 82.4046 7.15903 82.3694 7.51274H83.8734ZM82.3694 8.11933C82.3905 8.74185 82.8743 9.01066 83.4231 9.01066C83.8242 9.01066 84.1057 8.947 84.3713 8.85503L84.4997 9.44748C84.2042 9.57659 83.796 9.66678 83.3035 9.66678C82.1935 9.66678 81.5391 8.98237 81.5391 7.9301C81.5391 6.97511 82.1161 6.07848 83.212 6.07848C84.322 6.07848 84.6879 6.99633 84.6879 7.75325C84.6879 7.91596 84.6739 8.04329 84.6598 8.11933" fill="white"/>
<path d="M21.8717 14.217C21.8488 11.8596 23.7909 10.7118 23.8806 10.6587C22.7812 9.04586 21.0765 8.82657 20.4767 8.80888C19.0465 8.65856 17.6585 9.67191 16.9303 9.67191C16.1861 9.67191 15.062 8.8248 13.8535 8.84956C12.2949 8.87432 10.8383 9.78156 10.0397 11.1875C8.39314 14.0578 9.62102 18.2739 11.2007 20.5942C11.9923 21.7296 12.9141 22.9994 14.1227 22.9534C15.3048 22.9039 15.7463 22.1965 17.173 22.1965C18.5874 22.1965 19.0025 22.9534 20.2357 22.9251C21.504 22.9039 22.3027 21.7844 23.0644 20.6367C23.9791 19.335 24.345 18.0529 24.3591 17.9874C24.3292 17.9768 21.8963 17.0431 21.8717 14.217Z" fill="white"/>
<path d="M19.5421 7.28449C20.1771 6.48513 20.6151 5.39572 20.492 4.29218C19.572 4.33462 18.4215 4.93238 17.7583 5.71406C17.1725 6.40377 16.6465 7.53385 16.7837 8.59496C17.8181 8.67277 18.8789 8.07148 19.5421 7.28449Z" fill="white"/>
<path d="M36.139 18.7179L35.3227 16.1837C35.2365 15.9255 35.0747 15.3153 34.8355 14.3568H34.8073C34.7123 14.7688 34.5575 15.379 34.3482 16.1837L33.546 18.7179H36.139ZM38.9606 22.766H37.3123L36.4099 19.9152H33.2751L32.4149 22.766H30.8105L33.9207 13.0605H35.8382" fill="white"/>
<path d="M45.3779 19.2379C45.3779 18.5552 45.2249 17.9946 44.9188 17.5525C44.5845 17.0927 44.1359 16.861 43.573 16.861C43.1913 16.861 42.843 16.9901 42.5351 17.243C42.2255 17.4994 42.0215 17.8319 41.9247 18.2458C41.8772 18.4368 41.8543 18.5942 41.8543 18.718V19.8852C41.8543 20.3945 42.0091 20.8242 42.3188 21.1744C42.6301 21.5263 43.033 21.6997 43.529 21.6997C44.1131 21.6997 44.5669 21.4751 44.8889 21.0223C45.2161 20.5713 45.3779 19.9771 45.3779 19.2379ZM46.9541 19.1795C46.9541 20.3697 46.6339 21.3124 45.9936 22.0021C45.4201 22.6175 44.7077 22.9235 43.8598 22.9235C42.9415 22.9235 42.2836 22.591 41.8825 21.9296H41.8543V25.6169H40.3063V18.0707C40.3063 17.3226 40.2887 16.5551 40.25 15.7663H41.6098L41.696 16.8769H41.7259C42.2413 16.0404 43.0242 15.6231 44.0744 15.6231C44.8941 15.6231 45.582 15.9502 46.1291 16.6028C46.6779 17.2572 46.9541 18.1149 46.9541 19.1795Z" fill="white"/>
<path d="M53.382 19.2379C53.382 18.5552 53.229 17.9946 52.9229 17.5525C52.5886 17.0927 52.14 16.861 51.5771 16.861C51.1954 16.861 50.8488 16.9901 50.5392 17.243C50.2279 17.4994 50.0273 17.8319 49.9323 18.2458C49.8831 18.4368 49.8602 18.5942 49.8602 18.718V19.8852C49.8602 20.3945 50.0132 20.8242 50.3229 21.1744C50.6342 21.5263 51.0371 21.6997 51.5349 21.6997C52.1172 21.6997 52.571 21.4751 52.8947 21.0223C53.2184 20.5713 53.382 19.9771 53.382 19.2379ZM54.9564 19.1795C54.9564 20.3697 54.638 21.3124 53.9977 22.0021C53.4242 22.6175 52.7135 22.9235 51.8639 22.9235C50.9473 22.9235 50.2894 22.591 49.8866 21.9296H49.8602V25.6169H48.3122V18.0707C48.3122 17.3226 48.2928 16.5551 48.2559 15.7663H49.6157L49.7019 16.8769H49.7318C50.2454 16.0404 51.0283 15.6231 52.0785 15.6231C52.9 15.6231 53.5843 15.9502 54.1349 16.6028C54.6838 17.2572 54.9564 18.1149 54.9564 19.1795Z" fill="white"/>
<path d="M63.9116 20.0443C63.9116 20.8685 63.6266 21.5405 63.0531 22.0604C62.4233 22.6264 61.549 22.9093 60.4249 22.9093C59.3853 22.9093 58.5515 22.7077 57.9199 22.3045L58.2788 21.0099C58.9596 21.422 59.7037 21.6272 60.5164 21.6272C61.0987 21.6272 61.5525 21.4963 61.878 21.2328C62.2017 20.9675 62.3635 20.6138 62.3635 20.1717C62.3635 19.7791 62.2316 19.4448 61.9642 19.176C61.6968 18.9072 61.2517 18.6578 60.6308 18.4262C58.9402 17.7913 58.0958 16.8628 58.0958 15.6425C58.0958 14.8449 58.3914 14.1906 58.9842 13.6812C59.5753 13.1719 60.3634 12.9155 61.3467 12.9155C62.2263 12.9155 62.9563 13.0711 63.5386 13.3771L63.1516 14.6451C62.608 14.348 61.9923 14.1977 61.3045 14.1977C60.7592 14.1977 60.3352 14.3321 60.0309 14.6009C59.7741 14.8414 59.6439 15.135 59.6439 15.4798C59.6439 15.8636 59.7899 16.1801 60.0872 16.4295C60.344 16.6594 60.8119 16.9088 61.491 17.1794C62.3213 17.5154 62.9317 17.908 63.324 18.359C63.7145 18.8099 63.9116 19.3723 63.9116 20.0443Z" fill="white"/>
<path d="M69.0227 16.9334H67.3181V20.3307C67.3181 21.1955 67.6189 21.627 68.2223 21.627C68.4968 21.627 68.7272 21.6041 68.9084 21.5563L68.9506 22.7359C68.648 22.8526 68.2452 22.9092 67.7491 22.9092C67.1387 22.9092 66.6602 22.7218 66.3154 22.3486C65.9724 21.9737 65.8 21.3441 65.8 20.4616V16.9334H64.7832V15.7662H65.8V14.4858L67.3181 14.0242V15.7662H69.0227" fill="white"/>
<path d="M75.1127 19.2591C75.1127 18.6136 74.9738 18.0618 74.6958 17.5985C74.3739 17.0396 73.9095 16.7602 73.3078 16.7602C72.6869 16.7602 72.2137 17.0396 71.89 17.5985C71.612 18.0618 71.4766 18.6242 71.4766 19.2892C71.4766 19.9347 71.612 20.4865 71.89 20.948C72.2242 21.5069 72.6921 21.7863 73.2955 21.7863C73.8848 21.7863 74.3493 21.5034 74.6835 20.9339C74.9702 20.4635 75.1127 19.9046 75.1127 19.2591ZM76.7171 19.2096C76.7171 20.2849 76.4127 21.1673 75.8006 21.8588C75.1602 22.5698 74.3106 22.9235 73.2516 22.9235C72.2277 22.9235 71.415 22.5821 70.8081 21.9013C70.203 21.2204 69.9004 20.3609 69.9004 19.3246C69.9004 18.2387 70.2118 17.3509 70.838 16.6612C71.4625 15.9679 72.3051 15.6231 73.3641 15.6231C74.3862 15.6231 75.2095 15.9644 75.8287 16.6453C76.4215 17.3102 76.7171 18.1626 76.7171 19.2096Z" fill="white"/>
<path d="M81.7436 17.1351C81.5906 17.1068 81.4287 17.0927 81.2563 17.0927C80.7128 17.0927 80.2906 17.2996 79.995 17.7117C79.7382 18.0778 79.6098 18.5376 79.6098 19.0929V22.7661H78.0635L78.0758 17.9716C78.0758 17.1634 78.0565 16.4295 78.0195 15.7663H79.367L79.4233 17.1068H79.4638C79.6274 16.647 79.886 16.2756 80.2378 15.998C80.5826 15.7486 80.9555 15.6231 81.3566 15.6231C81.4991 15.6231 81.6293 15.6337 81.7436 15.6514" fill="white"/>
<path d="M87.1856 18.5323C87.1961 18.0725 87.0959 17.6728 86.8865 17.3368C86.6191 16.9053 86.2057 16.6877 85.6534 16.6877C85.1485 16.6877 84.7369 16.9 84.422 17.3226C84.1651 17.6586 84.0103 18.0619 83.9664 18.5323H87.1856ZM88.6598 18.9355C88.6598 19.2149 88.6422 19.4484 88.6052 19.6411H83.9664C83.9822 20.3326 84.2074 20.8614 84.6384 21.2257C85.0289 21.5529 85.5355 21.7138 86.1565 21.7138C86.8426 21.7138 87.4688 21.6042 88.0335 21.3831L88.2763 22.4637C87.6166 22.7502 86.839 22.897 85.9401 22.897C84.8618 22.897 84.0139 22.5769 83.3982 21.9367C82.7842 21.3 82.4746 20.4423 82.4746 19.367C82.4746 18.3112 82.7596 17.4323 83.3348 16.732C83.9347 15.9821 84.7474 15.6089 85.7677 15.6089C86.7704 15.6089 87.5321 15.9821 88.0476 16.732C88.4575 17.3262 88.6598 18.0619 88.6598 18.9355Z" fill="white"/>
</svg>
