<svg width="24" height="24" viewBox="0 0 24 24" fill="none" xmlns="http://www.w3.org/2000/svg">
<path d="M5.53 5L5 3H1.25C0.984784 3 0.73043 3.10536 0.542893 3.29289C0.355357 3.48043 0.25 3.73478 0.25 4C0.25 4.26522 0.355357 4.51957 0.542893 4.70711C0.73043 4.89464 0.984784 5 1.25 5H3.47L6.7 18H20V16H8.26L7.93 14.66L21 12.17V5H5.53ZM19 10.52L7.45 12.71L6 7H19V10.52ZM7 19C6.70333 19 6.41332 19.088 6.16664 19.2528C5.91997 19.4176 5.72771 19.6519 5.61418 19.926C5.50065 20.2001 5.47094 20.5017 5.52882 20.7926C5.5867 21.0836 5.72956 21.3509 5.93934 21.5607C6.14912 21.7704 6.41639 21.9133 6.70736 21.9712C6.99834 22.0291 7.29994 21.9993 7.57403 21.8858C7.84811 21.7723 8.08238 21.58 8.2472 21.3334C8.41203 21.0867 8.5 20.7967 8.5 20.5C8.5 20.1022 8.34196 19.7206 8.06066 19.4393C7.77936 19.158 7.39782 19 7 19ZM19 19C18.7033 19 18.4133 19.088 18.1666 19.2528C17.92 19.4176 17.7277 19.6519 17.6142 19.926C17.5007 20.2001 17.4709 20.5017 17.5288 20.7926C17.5867 21.0836 17.7296 21.3509 17.9393 21.5607C18.1491 21.7704 18.4164 21.9133 18.7074 21.9712C18.9983 22.0291 19.2999 21.9993 19.574 21.8858C19.8481 21.7723 20.0824 21.58 20.2472 21.3334C20.412 21.0867 20.5 20.7967 20.5 20.5C20.5 20.1022 20.342 19.7206 20.0607 19.4393C19.7794 19.158 19.3978 19 19 19Z" fill="#CACACA"/>
</svg>
