<svg width="40" height="40" viewBox="0 0 40 40" fill="none" xmlns="http://www.w3.org/2000/svg">
<path fill-rule="evenodd" clip-rule="evenodd" d="M0 20C0 8.9543 8.9543 0 20 0C31.0457 0 40 8.9543 40 20C40 31.0457 31.0457 40 20 40C8.9543 40 0 31.0457 0 20Z" fill="#0C0C0C"/>
<path d="M24.6234 11.0035L22.2249 11C19.5302 11 17.7888 12.6421 17.7888 15.1837V17.1127H15.3771C15.1688 17.1127 15 17.268 15 17.4595V20.2544C15 20.4459 15.1689 20.601 15.3771 20.601H17.7888V27.6534C17.7888 27.8449 17.9575 28 18.1659 28H21.3124C21.5208 28 21.6896 27.8447 21.6896 27.6534V20.601H24.5093C24.7177 20.601 24.8865 20.4459 24.8865 20.2544L24.8876 17.4595C24.8876 17.3676 24.8478 17.2795 24.7772 17.2144C24.7066 17.1493 24.6103 17.1127 24.5103 17.1127H21.6896V15.4775C21.6896 14.6915 21.8933 14.2925 23.0073 14.2925L24.623 14.292C24.8312 14.292 25 14.1367 25 13.9454V11.3502C25 11.159 24.8314 11.0039 24.6234 11.0035Z" fill="white"/>
</svg>
