<svg width="40" height="40" viewBox="0 0 40 40" fill="none" xmlns="http://www.w3.org/2000/svg">
<path fill-rule="evenodd" clip-rule="evenodd" d="M0 20C0 8.9543 8.9543 0 20 0C31.0457 0 40 8.9543 40 20C40 31.0457 31.0457 40 20 40C8.9543 40 0 31.0457 0 20Z" fill="#0C0C0C"/>
<path fill-rule="evenodd" clip-rule="evenodd" d="M16.8125 11.5H23.1875C26.1211 11.5 28.5 13.8789 28.5 16.8125V23.1875C28.5 26.1211 26.1211 28.5 23.1875 28.5H16.8125C13.8789 28.5 11.5 26.1211 11.5 23.1875V16.8125C11.5 13.8789 13.8789 11.5 16.8125 11.5ZM23.1875 26.9062C25.2381 26.9062 26.9062 25.2381 26.9062 23.1875V16.8125C26.9062 14.7619 25.2381 13.0938 23.1875 13.0938H16.8125C14.7619 13.0938 13.0938 14.7619 13.0938 16.8125V23.1875C13.0938 25.2381 14.7619 26.9062 16.8125 26.9062H23.1875Z" fill="white"/>
<path fill-rule="evenodd" clip-rule="evenodd" d="M15.75 20C15.75 17.6529 17.6529 15.75 20 15.75C22.3471 15.75 24.25 17.6529 24.25 20C24.25 22.3471 22.3471 24.25 20 24.25C17.6529 24.25 15.75 22.3471 15.75 20ZM17.3438 20C17.3438 21.4641 18.5359 22.6562 20 22.6562C21.4641 22.6562 22.6562 21.4641 22.6562 20C22.6562 18.5348 21.4641 17.3438 20 17.3438C18.5359 17.3438 17.3438 18.5348 17.3438 20Z" fill="white"/>
<path d="M24.5688 15.9973C24.8815 15.9973 25.1351 15.7438 25.1351 15.431C25.1351 15.1183 24.8815 14.8647 24.5688 14.8647C24.256 14.8647 24.0024 15.1183 24.0024 15.431C24.0024 15.7438 24.256 15.9973 24.5688 15.9973Z" fill="white"/>
</svg>
