<svg width="40" height="40" viewBox="0 0 40 40" fill="none" xmlns="http://www.w3.org/2000/svg">
<path fill-rule="evenodd" clip-rule="evenodd" d="M0 20C0 8.9543 8.9543 0 20 0C31.0457 0 40 8.9543 40 20C40 31.0457 31.0457 40 20 40C8.9543 40 0 31.0457 0 20Z" fill="#0C0C0C"/>
<path fill-rule="evenodd" clip-rule="evenodd" d="M13.1872 11C11.8649 11 11 11.854 11 12.9769C11 14.0755 11.8399 14.9553 13.1359 14.9553H13.1617C14.5097 14.9553 15.3479 14.0756 15.3479 12.9769C15.3225 11.854 14.5097 11 13.1872 11ZM29.0281 21.3989V27.9612H25.1641V21.8384C25.1641 20.3003 24.6052 19.2506 23.2066 19.2506C22.1389 19.2506 21.5035 19.958 21.224 20.6423C21.122 20.8869 21.0958 21.2274 21.0958 21.5699V27.9612H17.2305C17.2305 27.9612 17.2826 17.5912 17.2305 16.5167H21.0954V18.1389C21.0917 18.1447 21.0875 18.1506 21.0833 18.1565C21.0786 18.1631 21.0739 18.1697 21.07 18.1759H21.0954V18.1389C21.6089 17.3603 22.526 16.2479 24.5786 16.2479C27.1217 16.2478 29.0281 17.8836 29.0281 21.3989ZM15.0934 27.9611H11.2296V16.5167H15.0934V27.9611Z" fill="white"/>
</svg>
