<svg width="41" height="26" viewBox="0 0 41 26" fill="none" xmlns="http://www.w3.org/2000/svg">
<g clip-path="url(#clip0_3937_74493)">
<path d="M41 0H0V26H41V0Z" fill="white"/>
<path d="M24.3737 6.21191H16.4457V19.1607H24.3737V6.21191Z" fill="#FF5F00"/>
<path d="M17.2623 12.688C17.2613 11.4411 17.5439 10.2104 18.0888 9.08888C18.6337 7.9674 19.4266 6.98455 20.4074 6.21472C19.1926 5.26002 17.7337 4.66636 16.1975 4.50157C14.6613 4.33677 13.1097 4.60751 11.72 5.28283C10.3304 5.95815 9.15877 7.01081 8.33908 8.32049C7.5194 9.63018 7.08472 11.1441 7.08472 12.6891C7.08472 14.2341 7.5194 15.748 8.33908 17.0577C9.15877 18.3674 10.3304 19.4201 11.72 20.0954C13.1097 20.7707 14.6613 21.0414 16.1975 20.8766C17.7337 20.7118 19.1926 20.1182 20.4074 19.1635C19.4263 18.3934 18.6332 17.4102 18.0883 16.2883C17.5434 15.1664 17.2609 13.9352 17.2623 12.688Z" fill="#EB001B"/>
<path d="M32.9442 17.7904V17.5253H33.0584V17.4705H32.7865V17.5253H32.8939V17.7904H32.9442ZM33.472 17.7904V17.4705H33.3897L33.2938 17.699L33.1978 17.4705H33.1155V17.7904H33.1749V17.5481L33.2641 17.7561H33.3258L33.4149 17.5481V17.7904H33.472Z" fill="#F79E1B"/>
<path d="M33.7314 12.6878C33.7313 14.2329 33.2965 15.7469 32.4767 17.0566C31.6569 18.3664 30.4851 19.419 29.0953 20.0942C27.7055 20.7695 26.1537 21.04 24.6174 20.875C23.0811 20.71 21.6222 20.116 20.4075 19.161C21.3879 18.3905 22.1805 17.4074 22.7256 16.2858C23.2706 15.1643 23.5538 13.9336 23.5538 12.6866C23.5538 11.4397 23.2706 10.209 22.7256 9.08743C22.1805 7.96588 21.3879 6.98277 20.4075 6.21225C21.6222 5.25726 23.0811 4.6633 24.6174 4.49828C26.1537 4.33325 27.7055 4.60381 29.0953 5.27903C30.4851 5.95426 31.6569 7.0069 32.4767 8.31663C33.2965 9.62636 33.7313 11.1403 33.7314 12.6855V12.6878Z" fill="#F79E1B"/>
</g>
<defs>
<clipPath id="clip0_3937_74493">
<rect width="41" height="26" fill="white"/>
</clipPath>
</defs>
</svg>
