<svg width="40" height="40" viewBox="0 0 40 40" fill="none" xmlns="http://www.w3.org/2000/svg">
<path fill-rule="evenodd" clip-rule="evenodd" d="M0 20C0 8.9543 8.9543 0 20 0C31.0457 0 40 8.9543 40 20C40 31.0457 31.0457 40 20 40C8.9543 40 0 31.0457 0 20Z" fill="#0C0C0C"/>
<path fill-rule="evenodd" clip-rule="evenodd" d="M18.8538 22.7418C18.8388 22.7935 18.8248 22.8372 18.8133 22.881C18.1493 25.4711 18.0754 26.0464 17.3928 27.2494C17.0674 27.8212 16.7006 28.3632 16.2951 28.8816C16.2494 28.9403 16.2063 29.0156 16.1148 28.9972C16.0146 28.9762 16.0066 28.886 15.9961 28.8063C15.887 28.0191 15.8263 27.2302 15.8527 26.4351C15.887 25.4002 16.0154 25.0447 17.3559 19.4337C17.3752 19.3479 17.3533 19.277 17.3251 19.1999C17.0041 18.3383 16.9407 17.4636 17.2213 16.5775C17.8282 14.6634 20.0078 14.5171 20.3886 16.0959C20.6235 17.0722 20.0025 18.3506 19.5258 20.2402C19.1308 21.7988 20.9744 22.9073 22.5497 21.769C24.0027 20.72 24.5665 18.2052 24.4592 16.4225C24.2481 12.8684 20.3332 12.1005 17.8502 13.2449C15.0031 14.5557 14.3557 18.0686 15.6416 19.6745C15.8044 19.8785 16.1113 20.0037 16.0577 20.2104C15.975 20.5317 15.902 20.8557 15.8123 21.1753C15.7454 21.4135 15.3646 21.5002 15.1227 21.4021C14.6486 21.2112 14.2537 20.9109 13.9335 20.5151C12.842 19.1693 12.5297 16.5074 13.9731 14.2536C15.5721 11.7572 18.5468 10.7468 21.2629 11.0532C24.5067 11.4201 26.557 13.6267 26.9404 16.13C27.1155 17.2701 26.9897 20.0817 25.3819 22.0693C23.5322 24.3529 20.5337 24.5044 19.1502 23.1025C19.0438 22.9948 18.9584 22.8696 18.8538 22.7409V22.7418Z" fill="white"/>
</svg>
