<?xml version="1.0" encoding="UTF-8"?>
<svg xmlns="http://www.w3.org/2000/svg" version="1.1" viewBox="0 0 230 230">
  <defs>
    <style>
      .cls-1 {
        fill: #fff;
      }
    </style>
  </defs>
  <!-- Generator: Adobe Illustrator 28.6.0, SVG Export Plug-In . SVG Version: 1.2.0 Build 709)  -->
  <g>
    <g id="Layer_1">
      <g>
        <path class="cls-1" d="M108.01,3.53c4.65,0,9.29,0,13.94,0,3.79.5,7.61.88,11.38,1.52,20.87,3.55,39.31,12.28,55.14,26.33,19.49,17.28,31.68,38.75,36.28,64.43.73,4.05,1.15,8.16,1.72,12.23v13.94c-.13.7-.3,1.4-.4,2.11-.53,3.88-.84,7.8-1.58,11.63-5.03,25.79-17.53,47.33-37.58,64.24-24.02,20.27-51.94,28.91-83.21,25.93-22.01-2.1-41.76-10.27-58.79-24.39C18.41,179.54,4.38,151.22,3.56,116.73c-.54-22.66,5.54-43.64,18.14-62.51C39.55,27.51,64.29,11.03,95.99,5.23c3.98-.73,8.01-1.14,12.02-1.7ZM115.02,16.59c-54.23-.04-98.47,44.18-98.46,98.43,0,54.16,44.06,98.28,98.27,98.41,54.2.14,98.49-44.04,98.58-98.33.09-54.22-44.11-98.48-98.38-98.52Z"/>
        <path class="cls-1" d="M29.62,115.01c0-46.91,38.46-85.35,85.36-85.35,46.91,0,85.36,38.45,85.35,85.36,0,46.91-38.46,85.36-85.36,85.35-46.9,0-85.36-38.47-85.35-85.37ZM187.27,115.06c.03-39.83-32.4-72.31-72.24-72.34-39.82-.03-72.31,32.41-72.34,72.24-.03,39.82,32.42,72.31,72.24,72.34,39.82.03,72.31-32.41,72.34-72.25Z"/>
        <path class="cls-1" d="M147.53,69.45v12.85h-18.92c1.92,4.27,3.8,8.44,5.85,12.99h13.01v13.1h-13.41c-3.49,13.44-11.8,21.95-25.48,25.65,8.15,9.67,16.21,19.23,24.45,29.01-3.29,2.79-6.52,5.53-9.96,8.44-14-16.59-27.9-33.07-42.14-49.94,3.66,0,6.81.05,9.97-.01,5-.1,10.08.24,14.97-.54,7.01-1.11,11.68-5.6,14.51-12.46h-37.92v-13.12h37.96c-2.84-6.86-7.51-11.1-14.46-12.58-2.17-.46-4.47-.44-6.71-.47-5.57-.06-11.14-.02-16.81-.02v-12.91h65.11Z"/>
      </g>
    </g>
  </g>
</svg>