<svg width="20" height="21" viewBox="0 0 20 21" fill="none" xmlns="http://www.w3.org/2000/svg">
<path d="M6.17797 2.31192C7.68664 1.81829 9.31336 1.81829 10.822 2.31192C12.3221 2.80275 13.6382 3.76843 14.5637 5.05122C15.4919 6.33763 16 7.91292 16 9.5C16 11.0871 15.4919 12.6624 14.5637 13.9488C13.6382 15.2316 12.3221 16.1973 10.822 16.6881C9.31336 17.1817 7.68664 17.1817 6.17797 16.6881C4.67787 16.1973 3.36181 15.2316 2.43629 13.9488C1.50815 12.6624 1 11.0871 1 9.5C1 7.91292 1.50815 6.33763 2.43629 5.05122C3.36181 3.76843 4.67787 2.80275 6.17797 2.31192Z" stroke="black" stroke-width="2"/>
<path d="M14.5 15L19 19.5" stroke="black" stroke-width="2"/>
</svg>
