<svg width="40" height="40" viewBox="0 0 40 40" fill="none" xmlns="http://www.w3.org/2000/svg">
<path fill-rule="evenodd" clip-rule="evenodd" d="M0 20C0 8.9543 8.9543 0 20 0C31.0457 0 40 8.9543 40 20C40 31.0457 31.0457 40 20 40C8.9543 40 0 31.0457 0 20Z" fill="#0C0C0C"/>
<path d="M15.1521 17.132C15.1543 17.3417 15.176 17.5514 15.1956 17.7612C15.2021 17.8304 15.2043 17.9006 15.2053 17.9698C15.2075 18.0895 15.1131 18.1982 14.9947 18.1906C14.9383 18.1873 14.8807 18.1719 14.8264 18.1532C14.6451 18.0884 14.466 18.0193 14.2858 17.9501C14.1229 17.8864 13.9568 17.8293 13.7885 17.7832C13.605 17.7326 13.4216 17.6953 13.2348 17.726C12.8548 17.7886 12.6073 18.2026 12.7463 18.5661C12.7853 18.6683 12.8451 18.7561 12.9167 18.8374C13.0155 18.9483 13.1273 19.0427 13.2489 19.1262C13.3922 19.2239 13.5366 19.3194 13.681 19.4161C13.9221 19.5764 14.1631 19.7356 14.403 19.8982C14.5029 19.9651 14.5995 20.0365 14.694 20.1101C14.7461 20.1507 14.795 20.1979 14.8395 20.2474C14.9242 20.3429 14.9708 20.4648 14.9632 20.5922C14.9556 20.7272 14.9328 20.859 14.8959 20.9886C14.7819 21.3927 14.6071 21.7683 14.3954 22.1274C13.8276 23.086 13.0231 23.835 12.0655 24.4466C11.8028 24.6146 11.5216 24.7497 11.2448 24.8947C11.2057 24.9155 11.1677 24.9364 11.1297 24.9595C11.0917 24.9825 11.058 25.0133 11.033 25.0506C10.994 25.1066 10.9885 25.1659 11.0222 25.2274C11.0504 25.2801 11.0917 25.3207 11.1362 25.3581C11.1861 25.3998 11.2404 25.435 11.2969 25.4668C11.6204 25.6524 11.9678 25.7907 12.3272 25.8874C12.5009 25.9346 12.6746 25.984 12.8472 26.0356C12.9536 26.0675 13.0535 26.1147 13.1523 26.1663C13.3184 26.2531 13.4129 26.3925 13.4476 26.5737C13.4672 26.6747 13.4791 26.778 13.4976 26.879C13.5432 27.1349 13.6343 27.2282 13.8819 27.2721C13.9687 27.2875 14.0578 27.2963 14.1457 27.3018C14.3672 27.3139 14.5887 27.3204 14.8102 27.3325C14.8167 27.3325 14.8232 27.3325 14.8286 27.3336C15.7134 27.3863 16.569 27.673 17.3279 28.1364C17.368 28.1605 17.4082 28.1858 17.4494 28.2099C17.7567 28.3977 18.0694 28.5767 18.4049 28.7085C18.7794 28.8556 19.1659 28.9435 19.5665 28.9797C19.9042 29.0105 20.2408 29.0061 20.5762 28.9677C21.0789 28.9105 21.5555 28.7623 22.0061 28.5295C22.2156 28.4208 22.4176 28.3 22.6173 28.1759C22.6282 28.1693 22.639 28.1627 22.651 28.155C23.4479 27.6642 24.3544 27.3666 25.287 27.3281C25.2935 27.3281 25.3 27.3281 25.3066 27.3281C25.502 27.3204 25.6963 27.3128 25.8917 27.3007C26.0057 27.2941 26.1197 27.2787 26.2316 27.248C26.3738 27.2084 26.4769 27.0822 26.5041 26.9361C26.5193 26.8559 26.5312 26.7758 26.5453 26.6956C26.5486 26.678 26.5486 26.6594 26.5518 26.6418C26.5844 26.4068 26.6995 26.2344 26.9177 26.1345C27.0513 26.073 27.1881 26.0235 27.3292 25.984C27.5724 25.9159 27.8178 25.8555 28.0555 25.7688C28.2651 25.693 28.467 25.603 28.6613 25.4953C28.72 25.4635 28.7764 25.4273 28.8307 25.3899C28.8676 25.3647 28.9024 25.3361 28.9328 25.3043C29.0305 25.2011 29.0207 25.066 28.91 24.9781C28.8459 24.9265 28.771 24.8925 28.6983 24.8562C28.1912 24.6048 27.7103 24.3105 27.263 23.9613C26.5877 23.4353 26.0155 22.8126 25.5823 22.0626C25.4282 21.7946 25.3001 21.5102 25.1947 21.2181C25.1253 21.0249 25.0688 20.8316 25.0547 20.6284C25.0449 20.4791 25.0949 20.3308 25.1958 20.2221C25.2686 20.1441 25.3533 20.0815 25.439 20.019C25.5671 19.9267 25.6963 19.8356 25.8266 19.7488C26.1067 19.5621 26.3879 19.3787 26.668 19.1932C26.7907 19.1119 26.909 19.024 27.0154 18.9219C27.0925 18.8472 27.162 18.7671 27.2174 18.6737C27.3325 18.4783 27.3411 18.2773 27.2554 18.0709C27.2043 17.9479 27.1088 17.8435 26.9894 17.7875C26.8189 17.7085 26.6409 17.6986 26.4617 17.7282C26.2685 17.7601 26.0828 17.8205 25.8994 17.8875C25.7115 17.9556 25.527 18.0302 25.3402 18.1005C25.2534 18.1335 25.1654 18.1664 25.0731 18.1807C25.0514 18.184 25.0297 18.1906 25.008 18.1895C24.9005 18.1862 24.8115 18.151 24.8126 18.005C24.8126 17.9347 24.8147 17.8633 24.818 17.793C24.8343 17.4416 24.8549 17.0902 24.8636 16.7388C24.8831 15.902 24.8799 15.062 24.6638 14.2494C24.5314 13.7519 24.3023 13.2896 23.9929 12.8789C23.3512 12.0256 22.5044 11.4843 21.4915 11.1954C20.9378 11.0373 20.3721 10.9857 19.7989 11.0033C19.2571 11.0197 18.7175 11.112 18.2051 11.2932C17.5971 11.5084 17.0445 11.8203 16.5744 12.2628C16.0402 12.7658 15.6288 13.3533 15.4051 14.0649C15.3041 14.3866 15.2401 14.7161 15.201 15.0499C15.1196 15.7406 15.1424 16.4357 15.1489 17.1298L15.1521 17.132Z" fill="white"/>
</svg>
