<svg width="41" height="26" viewBox="0 0 41 26" fill="none" xmlns="http://www.w3.org/2000/svg">
<g clip-path="url(#clip0_2443_4136)">
<path d="M41 0H0V26H41V0Z" fill="white"/>
<path d="M16.2881 7.19979L11.7058 18.1325H8.71627L6.46134 9.40843C6.32444 8.87104 6.20613 8.67416 5.78905 8.44776C5.10929 8.07898 3.98674 7.73299 3 7.51807L3.06708 7.20034H7.87956C8.49297 7.20034 9.0444 7.60867 9.18367 8.31505L10.3746 14.6405L13.3178 7.19943H16.2892L16.2881 7.19979ZM28.0017 14.5631C28.0138 11.6776 24.0117 11.5188 24.0393 10.2297C24.0478 9.83736 24.4221 9.42028 25.2389 9.31382C25.6442 9.26077 26.7607 9.22031 28.028 9.80309L28.5247 7.48471C27.8442 7.23771 26.9687 7 25.8793 7C23.0839 7 21.1166 8.48604 21.1 10.6139C21.0818 12.1878 22.5036 13.0661 23.5757 13.5891C24.678 14.1247 25.0479 14.4688 25.0437 14.9479C25.0358 15.6812 24.1645 16.0052 23.3502 16.0178C21.9283 16.0396 21.1038 15.6331 20.4463 15.3274L19.9337 17.7225C20.5945 18.0257 21.8142 18.2902 23.0788 18.3035C26.0501 18.3035 27.9935 16.8359 28.0026 14.5631M35.3843 18.1325H38L35.7155 7.19979H33.3016C33.0438 7.19757 32.7913 7.27284 32.5768 7.41586C32.3622 7.55887 32.1956 7.76303 32.0985 8.00187L27.8546 18.1325H30.8243L31.4135 16.4996H35.042L35.3843 18.1325ZM32.2287 14.2588L33.7173 10.154L34.574 14.2588H32.2287ZM20.3289 7.19979L17.9903 18.1325H15.1623L17.5018 7.19979H20.3289Z" fill="#1434CB"/>
</g>
<defs>
<clipPath id="clip0_2443_4136">
<rect width="41" height="26" fill="white"/>
</clipPath>
</defs>
</svg>
