<?xml version="1.0" ?><svg fill="none" height="24" viewBox="0 0 24 24" width="24" xmlns="http://www.w3.org/2000/svg"><g id="Discount voucher"><path clip-rule="evenodd" d="M0.25 7C0.25 6.0335 1.0335 5.25 2 5.25H22C22.9665 5.25 23.75 6.0335 23.75 7V9C23.75 9.41421 23.4142 9.75 23 9.75C22.9123 9.75 22.8282 9.73496 22.75 9.70732C22.6718 9.73496 22.5877 9.75 22.5 9.75C20.9812 9.75 19.75 10.9812 19.75 12.5C19.75 14.0188 20.9812 15.25 22.5 15.25C22.5877 15.25 22.6718 15.265 22.75 15.2927C22.8282 15.265 22.9123 15.25 23 15.25C23.4142 15.25 23.75 15.5858 23.75 16V18C23.75 18.9665 22.9665 19.75 22 19.75H2C1.0335 19.75 0.25 18.9665 0.25 18V16C0.25 15.5858 0.585786 15.25 1 15.25C2.51878 15.25 3.75 14.0188 3.75 12.5C3.75 10.9812 2.51878 9.75 1 9.75C0.585786 9.75 0.25 9.41421 0.25 9V7ZM22.25 16.7428C20.0192 16.6134 18.25 14.7633 18.25 12.5C18.25 10.2367 20.0192 8.38664 22.25 8.25723V7C22.25 6.86193 22.1381 6.75 22 6.75H2C1.86193 6.75 1.75 6.86193 1.75 7V8.31597C3.73951 8.6702 5.25 10.4087 5.25 12.5C5.25 14.5913 3.73951 16.3298 1.75 16.684V18C1.75 18.1381 1.86193 18.25 2 18.25H22C22.1381 18.25 22.25 18.1381 22.25 18V16.7428Z" fill="black" fill-rule="evenodd" id="Vector (Stroke)"/><path clip-rule="evenodd" d="M15.3588 8.64123C15.6517 8.93412 15.6517 9.409 15.3588 9.70189L9.70191 15.3587C9.40901 15.6516 8.93414 15.6516 8.64125 15.3587C8.34835 15.0659 8.34835 14.591 8.64125 14.2981L14.2981 8.64123C14.591 8.34834 15.0659 8.34834 15.3588 8.64123Z" fill="black" fill-rule="evenodd" id="Vector 34 (Stroke)"/><path clip-rule="evenodd" d="M14 13.25C14.4142 13.25 14.75 13.5858 14.75 14V15C14.75 15.4142 14.4142 15.75 14 15.75C13.5858 15.75 13.25 15.4142 13.25 15V14C13.25 13.5858 13.5858 13.25 14 13.25Z" fill="black" fill-rule="evenodd" id="Vector 35 (Stroke)"/><path clip-rule="evenodd" d="M10 8.25C10.4142 8.25 10.75 8.58579 10.75 9V10C10.75 10.4142 10.4142 10.75 10 10.75C9.58579 10.75 9.25 10.4142 9.25 10V9C9.25 8.58579 9.58579 8.25 10 8.25Z" fill="black" fill-rule="evenodd" id="Vector 36 (Stroke)"/></g></svg>