<?xml version="1.0" encoding="UTF-8"?>
<svg xmlns="http://www.w3.org/2000/svg" version="1.1" viewBox="0 0 116 36">
  <defs>
    <style>
      .cls-1 {
        fill: #10b0ff;
        fill-rule: evenodd;
      }
    </style>
  </defs>
  <!-- Generator: Adobe Illustrator 28.6.0, SVG Export Plug-In . SVG Version: 1.2.0 Build 709)  -->
  <g>
    <g id="Layer_1">
      <g id="Layer_1-2" data-name="Layer_1">
        <path class="cls-1" d="M24.76.37c.43.04.9.15,1.21.22,8.29,1.94,13.15,8.48,13.15,16.62v18.79h-6.23v-4.22h3.1v-5.01h-3.11v-10.05c-.03-5.59-4.22-10.24-9.73-11.14-.66-.12-1.33-.18-2-.16h0c-2.11.04-4.03.79-5.31,2.29h0c1.18-.47,2.44-.71,3.72-.71,2.6,0,5.09,1.01,6.96,2.82,1.87,1.81,2.98,4.27,3.09,6.88h-3.11v5h3.14v14.31h-6.22v-18.9c0-.57-.13-1.12-.37-1.64-.24-.51-.59-.96-1.02-1.32l-2.46,2.96-2.46-2.96c-.43.36-.78.81-1.02,1.33-.24.51-.36,1.07-.36,1.64v18.9h-6.22v-9.24h3.11v-5h-3.11v-4.89c0-.3,0-.6.02-.9.22-5.32,2.36-10.81,7.14-13.81.86-.56,1.78-1,2.75-1.32,1.11-.41,2.27-.62,3.45-.62.63,0,1.26.05,1.89.15v-.02ZM18.22,0h1.83c.33,0,0,.09-.28.15C12.98,1.54,6.22,7.94,6.22,16.91v19.09H0v-19.32h3.1v-5H.79C2.99,4.75,9.55,0,18.22,0ZM61.5,16.68v-5h-14.92v5h4.98v19.32h4.97v-19.32s4.97,0,4.97,0ZM64.1,11.68h4.97v24.32h-4.97V11.68ZM81.53,11.68h-4.97v24.32h4.97V11.68ZM89.48,11.68l-5.19,24.32h5.04l3.53-19.35,3.74,19.35h5.11l-5.32-24.32s-6.91,0-6.91,0ZM75.3,20.62h-4.97v5h4.97v-5ZM116,11.68v5h-4.97v19.32h-4.97v-19.32h-4.98v-5h14.92Z"/>
      </g>
    </g>
  </g>
</svg>