<?xml version="1.0" encoding="UTF-8"?>
<svg xmlns="http://www.w3.org/2000/svg" version="1.1" viewBox="0 0 32 32">
  <defs>
    <style>
      .cls-1 {
        fill: #fff;
      }
    </style>
  </defs>
  <!-- Generator: Adobe Illustrator 28.6.0, SVG Export Plug-In . SVG Version: 1.2.0 Build 709)  -->
  <g>
    <g id="Layer_1">
      <g id="Layer_30">
        <path class="cls-1" d="M27,27H5c-.55,0-1-.45-1-1,0-.16.04-.31.11-.45,1.23-2.49,1.88-5.22,1.89-8v-3.55c0-5.52,4.48-10,10-10s10,4.48,10,10v3.53c0,2.78.66,5.51,1.89,8,.26.49.07,1.09-.41,1.35-.15.08-.31.12-.48.12ZM6.55,25h18.9c-.95-2.38-1.45-4.91-1.45-7.47v-3.53c0-4.42-3.58-8-8-8s-8,3.58-8,8v3.53c0,2.56-.5,5.09-1.45,7.47Z"/>
        <path class="cls-1" d="M16,31c-2.76,0-5-2.24-5-5,0-.55.45-1,1-1s1,.45,1,1c0,.8.32,1.56.88,2.12,1.19,1.13,3.05,1.13,4.24,0,.39-.39,1.03-.39,1.42,0s.39,1.03,0,1.42c-.94.94-2.21,1.46-3.54,1.46Z"/>
        <path class="cls-1" d="M16,6c-.55,0-1-.45-1-1v-3c0-.55.45-1,1-1s1,.45,1,1v3c0,.55-.45,1-1,1Z"/>
      </g>
    </g>
  </g>
</svg>