<?xml version="1.0" encoding="UTF-8"?>
<svg xmlns="http://www.w3.org/2000/svg" version="1.1" viewBox="0 0 128 128">
  <defs>
    <style>
      .cls-1 {
        fill: #fff;
      }
    </style>
  </defs>
  <!-- Generator: Adobe Illustrator 28.6.0, SVG Export Plug-In . SVG Version: 1.2.0 Build 709)  -->
  <g>
    <g id="Layer_4">
      <path class="cls-1" d="M80.79,28.43c11.7,0,21.2,9.48,21.21,21.18,0,8.12-3.52,20.9-20.26,35.67-5.51,4.81-11.45,9.1-17.74,12.83-6.28-3.73-12.21-8.03-17.71-12.83-16.74-14.77-20.29-27.55-20.29-35.67-.01-11.7,9.46-21.19,21.16-21.2,4.06,0,8.03,1.16,11.45,3.35l5.39,3.46,5.39-3.46c3.4-2.18,7.36-3.33,11.4-3.33M80.79,18.43c-5.95,0-11.78,1.7-16.79,4.91-14.5-9.29-33.78-5.07-43.07,9.43-3.22,5.02-4.93,10.87-4.93,16.84,0,36,48,60,48,60,0,0,48-24,48-60,0-17.22-13.96-31.18-31.18-31.18-.01,0-.02,0-.03,0Z"/>
    </g>
  </g>
</svg>