<svg width="96" height="92" viewBox="0 0 96 92" fill="none" xmlns="http://www.w3.org/2000/svg">
<path d="M64.79 10.4299C70.4109 10.4273 75.8027 12.6569 79.7801 16.6287C83.7574 20.6004 85.9947 25.9891 86 31.6099C86 39.7299 82.48 52.5099 65.74 67.2799C60.2276 72.0853 54.2899 76.3796 48 80.1099C41.7205 76.3781 35.7928 72.0838 30.29 67.2799C13.55 52.5099 10 39.7299 10 31.6099C9.99661 27.807 11.0172 24.0734 12.9545 20.801C14.8919 17.5286 17.6745 14.8382 21.0104 13.0122C24.3462 11.1863 28.1121 10.2921 31.9127 10.4237C35.7133 10.5552 39.4084 11.7077 42.61 13.7599L48 17.2199L53.39 13.7599C56.7933 11.5824 60.7497 10.4267 64.79 10.4299ZM64.79 0.429927C58.8387 0.425327 53.0111 2.12951 48 5.33993C43.2875 2.32079 37.8492 0.625737 32.2558 0.432632C26.6624 0.239526 21.1202 1.55549 16.2107 4.24243C11.3012 6.92938 7.20535 10.8882 4.35306 15.7036C1.50077 20.5189 -0.00284279 26.0132 4.03497e-06 31.6099C4.03497e-06 67.6099 48 91.6099 48 91.6099C48 91.6099 96 67.6099 96 31.6099C96 27.5128 95.1925 23.4558 93.6237 19.6709C92.0549 15.886 89.7555 12.4474 86.857 9.55172C83.9585 6.656 80.5177 4.35992 76.7313 2.79475C72.9449 1.22957 68.8871 0.425985 64.79 0.429927Z" fill="#CACACA"/>
</svg>
