<svg width="40" height="40" viewBox="0 0 40 40" fill="none" xmlns="http://www.w3.org/2000/svg">
<path fill-rule="evenodd" clip-rule="evenodd" d="M0 20C0 8.9543 8.9543 0 20 0C31.0457 0 40 8.9543 40 20C40 31.0457 31.0457 40 20 40C8.9543 40 0 31.0457 0 20Z" fill="#0C0C0C"/>
<path d="M28.8466 17.2169C28.736 16.1965 28.4981 15.0685 27.6225 14.4758C26.9443 14.0161 26.0529 13.9991 25.2207 14C23.4615 14 21.7014 14.0029 19.9422 14.0038C18.2502 14.0057 16.5582 14.0066 14.8661 14.0085C14.1593 14.0085 13.4722 13.9566 12.8158 14.2492C12.2521 14.5003 11.8108 14.9779 11.5453 15.5093C11.177 16.2484 11.1 17.0857 11.0556 17.9031C10.9737 19.3916 10.9826 20.8839 11.0803 22.3715C11.1524 23.457 11.335 24.6567 12.2126 25.3486C12.9905 25.9612 14.0882 25.9914 15.0971 25.9924C18.2996 25.9952 21.503 25.998 24.7064 25.9999C25.117 26.0009 25.5455 25.9933 25.964 25.9499C26.7873 25.8649 27.5721 25.6394 28.1013 25.056C28.6353 24.468 28.7726 23.6496 28.8535 22.8747C29.0509 20.9944 29.049 19.0962 28.8466 17.2169ZM18.0903 22.6358V17.3641L22.8643 19.9995L18.0903 22.6358Z" fill="white"/>
</svg>
